<?xml version="1.0" encoding="UTF-8" standalone="no"?>
<svg
   xmlns:dc="http://purl.org/dc/elements/1.1/"
   xmlns:cc="http://creativecommons.org/ns#"
   xmlns:rdf="http://www.w3.org/1999/02/22-rdf-syntax-ns#"
   xmlns:svg="http://www.w3.org/2000/svg"
   xmlns="http://www.w3.org/2000/svg"
   viewBox="0 0 794.66669 1124"
   height="1124"
   width="794.66669"
   xml:space="preserve"
   id="svg2"
   version="1.1"><metadata
     id="metadata8"><rdf:RDF><cc:Work
         rdf:about=""><dc:format>image/svg+xml</dc:format><dc:type
           rdf:resource="http://purl.org/dc/dcmitype/StillImage" /></cc:Work></rdf:RDF></metadata><defs
     id="defs6"><clipPath
       id="clipPath18"
       clipPathUnits="userSpaceOnUse"><path
         style="clip-rule:evenodd"
         id="path16"
         d="M 596,0 H 0 v 842.95715 h 596 z" /></clipPath></defs><g
     transform="matrix(1.3333333,0,0,1.3333333,0,2.81e-5)"
     id="g10"><g
       id="g12"><g
         clip-path="url(#clipPath18)"
         id="g14"><g
           transform="scale(0.75062972)"
           id="g20"><path
             id="path22"
             style="fill:#ffffff;fill-opacity:1;fill-rule:nonzero;stroke:none"
             d="M 0,0 H 794 V 1123 H 0 Z" /><path
             id="path24"
             style="fill:#ffffff;fill-opacity:1;fill-rule:nonzero;stroke:none"
             d="M 0,0 H 794 V 1123 H 0 Z" /><path
             id="path26"
             style="fill:#ffffff;fill-opacity:1;fill-rule:nonzero;stroke:none"
             d="M 0,0 H 794 V 3369 H 0 Z" /><path
             id="path28"
             style="fill:#ffffff;fill-opacity:1;fill-rule:nonzero;stroke:none"
             d="M 0,0 H 794 V 1123 H 0 Z" /><path
             id="path30"
             style="fill:#ffffff;fill-opacity:1;fill-rule:nonzero;stroke:none"
             d="M 0,96 H 794 V 1123 H 0 Z" /><text
             id="text34"
             style="font-variant:normal;font-weight:normal;font-size:34.65999985px;font-family:Arial;-inkscape-font-specification:ArialMT;writing-mode:lr-tb;fill:#000000;fill-opacity:1;fill-rule:nonzero;stroke:none"
             transform="translate(96,129)"><tspan
               id="tspan32"
               y="0"
               x="0 28.868927 48.143082 65.471207 73.170715 92.44487 100.14438 109.77299 142.48322 161.75739 169.45688 186.785 194.4845 213.75867 231.08679 250.36096 259.98956 292.69977 300.39929 319.67346 337.00159 344.70111">Maciej Wojciech Wlazło</tspan></text>
<text
             id="text38"
             style="font-variant:normal;font-weight:normal;font-size:24px;font-family:Arial;-inkscape-font-specification:ArialMT;writing-mode:lr-tb;fill:#6d9eeb;fill-opacity:1;fill-rule:nonzero;stroke:none"
             transform="translate(96,171)"><tspan
               id="tspan36"
               y="0"
               x="0 12 25.347656 38.695312 44.027344 57.375 65.367188 72.035156 88.042969 101.39062 108.05859 114.72656 132.05859 145.40625 153.39844 166.74609 173.41406 190.74609 204.09375 216.09375 229.44141 234.77344 248.12109 261.46875 274.81641">Junior Software Developer</tspan></text>
<text
             id="text42"
             style="font-variant:normal;font-weight:normal;font-size:14.65999985px;font-family:Arial;-inkscape-font-specification:ArialMT;writing-mode:lr-tb;fill:#000000;fill-opacity:1;fill-rule:nonzero;stroke:none"
             transform="translate(96,215)"><tspan
               id="tspan40"
               y="0"
               x="0 10.584274 18.735382 22.807358 30.958466 35.030441 43.181549 51.332657 59.483765 63.55574 73.331345 76.587494 84.738602 92.066727 100.21783 104.28981 112.44092 116.51289 120.58487 130.36047 133.61662 138.49727 142.56924 150.72035 154.79233 158.8643 167.01541 175.1665 179.23849 187.38959 195.54071 199.61267 207.76379 215.91492 224.06601 232.2171 236.28909 240.36108 250.13666 255.01733 263.16843 270.49655 278.64764">Date and Place of Birth: 02.11.1993, Kraków</tspan></text>
<text
             id="text46"
             style="font-variant:normal;font-weight:normal;font-size:14.65999985px;font-family:Arial;-inkscape-font-specification:ArialMT;writing-mode:lr-tb;fill:#000000;fill-opacity:1;fill-rule:nonzero;stroke:none"
             transform="translate(96,235)"><tspan
               id="tspan44"
               y="0"
               x="0 8.9526215 17.103729 20.359879 28.510986 36.662094 44.813202 52.96431 61.115417 69.266525 73.338501 77.410477 85.561584 93.712692 101.8638 105.93578 114.08688 122.23799 130.3891 134.46107 142.61218 150.76329">Telephone: 792 385 678</tspan></text>
<text
             id="text50"
             style="font-variant:normal;font-weight:normal;font-size:14.65999985px;font-family:Arial;-inkscape-font-specification:ArialMT;writing-mode:lr-tb;fill:#000000;fill-opacity:1;fill-rule:nonzero;stroke:none"
             transform="translate(96,255)"><tspan
               id="tspan48"
               y="0"
               x="0 9.7756042 14.65625 26.865021 35.016129 38.272278 41.528427 45.600403">E-mail: </tspan></text>
<text
             id="text54"
             style="font-variant:normal;font-weight:normal;font-size:14.65999985px;font-family:Gautami;-inkscape-font-specification:Gautami;writing-mode:lr-tb;fill:#000000;fill-opacity:1;fill-rule:nonzero;stroke:none"
             transform="translate(145.67238,255)"><tspan
               id="tspan52"
               y="0"
               x="0">​</tspan></text>
<text
             id="text58"
             style="font-variant:normal;font-weight:normal;font-size:14.65999985px;font-family:Arial;-inkscape-font-specification:ArialMT;writing-mode:lr-tb;fill:#1155cc;fill-opacity:1;fill-rule:nonzero;stroke:none"
             transform="translate(145.67238,255)"><tspan
               id="tspan56"
               y="0"
               x="0 10.584274 14.65625 26.865021 35.016129 42.344254 45.600403 53.751511 61.079636 75.957733 84.108841 92.259949 96.331924 108.5407 116.69182 119.94795 123.20409 127.27608 134.6042 142.75529">w.maciek@hotmail.com</tspan></text>
<path
             id="path60"
             style="fill:#1155cc;fill-opacity:1;fill-rule:nonzero;stroke:none"
             d="m 145.67238,256 h 154.9641 v 1 h -154.9641 z" /><text
             id="text64"
             style="font-variant:normal;font-weight:normal;font-size:14.65999985px;font-family:Arial;-inkscape-font-specification:ArialMT;writing-mode:lr-tb;fill:#000000;fill-opacity:1;fill-rule:nonzero;stroke:none"
             transform="translate(96,275)"><tspan
               id="tspan62"
               y="0"
               x="0 11.400101 14.65625 18.728226 26.879333 35.030441 43.181549 47.253525">Github: </tspan></text>
<text
             id="text68"
             style="font-variant:normal;font-weight:normal;font-size:14.65999985px;font-family:Gautami;-inkscape-font-specification:Gautami;writing-mode:lr-tb;fill:#000000;fill-opacity:1;fill-rule:nonzero;stroke:none"
             transform="translate(147.3255,275)"><tspan
               id="tspan66"
               y="0"
               x="0">​</tspan></text>
<text
             id="text72"
             style="font-variant:normal;font-weight:normal;font-size:14.65999985px;font-family:Arial;-inkscape-font-specification:ArialMT;writing-mode:lr-tb;fill:#1155cc;fill-opacity:1;fill-rule:nonzero;stroke:none"
             transform="translate(147.3255,275)"><tspan
               id="tspan70"
               y="0"
               x="0 12.208771 20.359879 27.688004 35.839111 43.167236 51.318344 58.646469">Machkeck</tspan></text>
<path
             id="path74"
             style="fill:#1155cc;fill-opacity:1;fill-rule:nonzero;stroke:none"
             d="m 147.3255,276 h 65.97459 v 1 H 147.3255 Z" /><text
             id="text78"
             style="font-variant:normal;font-weight:bold;font-size:14.65999985px;font-family:Arial;-inkscape-font-specification:Arial-BoldMT;writing-mode:lr-tb;fill:#000000;fill-opacity:1;fill-rule:nonzero;stroke:none"
             transform="translate(96,315)"><tspan
               id="tspan76"
               y="0"
               x="0 13.833267 22.785889 28.489517 36.640625 40.712601 48.863708 57.014816 65.967438 74.118546 79.822174 83.89415 92.045258 100.99788 109.14899">Work experience</tspan></text>
<path
             id="path80"
             style="fill:#888888;fill-opacity:1;fill-rule:nonzero;stroke:none"
             d="m 100,333 h 594 v 1 H 100 Z" /><text
             id="text84"
             style="font-variant:normal;font-weight:bold;font-size:14.65999985px;font-family:Arial;-inkscape-font-specification:Arial-BoldMT;writing-mode:lr-tb;fill:#000000;fill-opacity:1;fill-rule:nonzero;stroke:none"
             transform="translate(144,375)"><tspan
               id="tspan82"
               y="0"
               x="0 4.0719757 13.024597 17.905243 26.056351 31.759979">Intern</tspan></text>
<text
             id="text88"
             style="font-variant:normal;font-weight:normal;font-size:14.65999985px;font-family:Arial;-inkscape-font-specification:ArialMT;writing-mode:lr-tb;fill:#000000;fill-opacity:1;fill-rule:nonzero;stroke:none"
             transform="translate(576,375)"><tspan
               id="tspan86"
               y="0"
               x="0 8.151123 16.302246 20.374207 28.525269 36.676392 44.827515 52.978638 57.050598 61.931274 66.003235 74.154297 82.30542 86.377441 94.528503 102.67963 110.83075">07.2016 - 09.2016</tspan></text>
<text
             id="text92"
             style="font-variant:normal;font-weight:normal;font-size:14.65999985px;font-family:Arial;-inkscape-font-specification:ArialMT;writing-mode:lr-tb;fill:#3c78d8;fill-opacity:1;fill-rule:nonzero;stroke:none"
             transform="translate(144,395)"><tspan
               id="tspan90"
               y="0"
               x="0 9.7756042 17.926712 30.135483 37.463608 45.614716 53.765823 61.916931 65.988907 75.764511 79.02066 87.171768 94.499893 98.571869 103.45251 111.60362 119.75473 123.01086 130.33899 137.66711 141.73911 151.51471 159.66583 162.92197 170.25009 177.57822 185.72931 189.8013 199.5769 207.72803 211.79999 219.12811 223.20007 231.3512 235.42316">Samsung Electronics Polska Sp.z o.o</tspan></text>
<text
             id="text96"
             style="font-variant:normal;font-weight:normal;font-size:14.65999985px;font-family:Arial;-inkscape-font-specification:ArialMT;writing-mode:lr-tb;fill:#000000;fill-opacity:1;fill-rule:nonzero;stroke:none"
             transform="translate(144,435)"><tspan
               id="tspan94"
               y="0"
               x="0 12.208771 20.359879 32.568649 40.719757 48.870865 53.751511 57.823486 65.974594 70.04657 74.118546 78.190521 86.341629 94.492737 98.564713 109.14899 117.30011 121.37207 131.95636 140.10745 144.9881 152.31622 156.38818 160.46017 168.61127 176.76239 188.97116 193.04315 197.92377 206.07489 213.40302 221.55414 229.70523 237.85632 245.18445 248.44061 256.59174 259.8479 267.99902 272.07098 276.14294 284.29407 289.17471 293.2467 297.31866 305.46979 313.62091 317.69287 325.84399 333.99512 341.32324 349.47437 352.73053 360.88165 369.03278 381.24158 389.39264 397.54376 401.61572 405.68768 413.83881 417.91077 421.98273 433.38281 441.53394 449.68506 454.56567 462.7168 466.78876 470.04492 478.19604 486.34717">Member of the Network team responsible for the development of Operation,</tspan></text>
<text
             id="text100"
             style="font-variant:normal;font-weight:normal;font-size:14.65999985px;font-family:Arial;-inkscape-font-specification:ArialMT;writing-mode:lr-tb;fill:#000000;fill-opacity:1;fill-rule:nonzero;stroke:none"
             transform="translate(144,455)"><tspan
               id="tspan98"
               y="0"
               x="0 9.7756042 17.926712 30.135483 33.391632 41.54274 44.798889 52.127014 56.19899 61.079636 69.230743 73.302719 76.558868 84.709976 92.861084 96.93306 105.08417 113.23529 121.38638 125.45837 137.66711 145.81824 153.96936 162.12045 170.27155 178.42267 190.63144 198.78253 206.93365 211.00562 215.88629 227.28638 237.06198 249.27075 254.1514 258.22339 265.55151 273.70264 277.7746 281.84656 292.43085 300.58197 305.46262 313.61371 317.68567 321.75763 329.90875 334.7894 338.86139 347.01251 358.4126 362.48456 370.63568 378.7868 386.11493 394.26605 398.33801 405.66614 409.7381 417.88922 421.96118 425.21735 433.36847 441.51959 448.84772">Administration and Management(OAM) software for 5G base stations.</tspan></text>
<text
             id="text104"
             style="font-variant:normal;font-weight:normal;font-size:14.65999985px;font-family:Arial;-inkscape-font-specification:ArialMT;writing-mode:lr-tb;fill:#000000;fill-opacity:1;fill-rule:nonzero;stroke:none"
             transform="translate(168,475)"><tspan
               id="tspan102"
               y="0"
               x="0">●</tspan></text>
<text
             id="text108"
             style="font-variant:normal;font-weight:normal;font-size:14.65999985px;font-family:Arial;-inkscape-font-specification:ArialMT;writing-mode:lr-tb;fill:#000000;fill-opacity:1;fill-rule:nonzero;stroke:none"
             transform="translate(192,475)"><tspan
               id="tspan106"
               y="0"
               x="0 10.584274 13.840424 21.168549 28.496674 36.647781 43.975906 51.304031 59.455139 67.606262 71.678223 79.829346 87.980438 96.131531 100.20352 108.35461 113.23529 121.38638 129.53748 137.6886 145.01672 153.16785 161.31894 165.39093 173.54202 181.69312 189.02124 192.2774 200.42853 208.57962 212.65161 220.8027 224.05884 232.20996 244.41873 252.56982 260.72095 264.79291 272.12103 276.19299 284.34412 288.41608 292.48804 299.81616 307.96729 312.84793 320.17603 328.32715 333.20776 337.27979 345.43091 353.58203 361.73315 365.80511 373.13324 376.3894 379.64557 387.79669 395.94781 400.01978 404.09174 411.41986 414.67603 426.88477 435.03589 438.29205 446.44318 450.51514 458.66626">Discussed and proposed design elements of server and client simulator</tspan></text>
<text
             id="text112"
             style="font-variant:normal;font-weight:normal;font-size:14.65999985px;font-family:Arial;-inkscape-font-specification:ArialMT;writing-mode:lr-tb;fill:#000000;fill-opacity:1;fill-rule:nonzero;stroke:none"
             transform="translate(192,495)"><tspan
               id="tspan110"
               y="0"
               x="0 8.1511078 13.031754 21.182861 29.333969 34.214615 42.365723 54.574493 61.902618 65.974609 74.125702 82.276794 87.157471 90.413605 98.564697 106.71582 110.78778 114.85977 123.01086 131.16199 143.37076 147.44275 159.65149 167.80261 175.95374 180.0257 183.28186 191.43295 199.58405 206.91217">programs during team meetings.</tspan></text>
<text
             id="text116"
             style="font-variant:normal;font-weight:normal;font-size:14.65999985px;font-family:Arial;-inkscape-font-specification:ArialMT;writing-mode:lr-tb;fill:#000000;fill-opacity:1;fill-rule:nonzero;stroke:none"
             transform="translate(168,515)"><tspan
               id="tspan114"
               y="0"
               x="0">●</tspan></text>
<text
             id="text120"
             style="font-variant:normal;font-weight:normal;font-size:14.65999985px;font-family:Arial;-inkscape-font-specification:ArialMT;writing-mode:lr-tb;fill:#000000;fill-opacity:1;fill-rule:nonzero;stroke:none"
             transform="translate(192,515)"><tspan
               id="tspan118"
               y="0"
               x="0 10.584274 18.735382 26.063507 34.214615 42.365723 50.51683 57.844955 61.101105 69.252197 72.508362 80.659485 84.731445 88.803406 96.954529 101.83517 105.90717 109.97913 118.13025 126.28134 130.35333 133.60947 145.81824 153.96936 157.22549 165.37659 177.58539 185.73648 193.88757 197.95956 206.11066 210.18265 213.43878 221.5899 229.74103 233.81299 241.96411 246.03607 250.10803 257.43616 260.69232 263.94849 272.09961 280.25073 284.32269 289.20334 296.53146 299.7876 307.93872 316.08984 320.1618 328.31293 333.1936 341.34467 349.49579 354.37646 362.52753 374.73633 382.06445 386.13641 390.20837 398.3595 403.24011 407.31213 415.46326 423.61438 431.7655 439.91663 443.17279 446.42896 454.58008">Responsible for the implementation of client-side programs for handling</tspan></text>
<text
             id="text124"
             style="font-variant:normal;font-weight:normal;font-size:14.65999985px;font-family:Arial;-inkscape-font-specification:ArialMT;writing-mode:lr-tb;fill:#000000;fill-opacity:1;fill-rule:nonzero;stroke:none"
             transform="translate(192,535)"><tspan
               id="tspan122"
               y="0"
               x="0 7.328125 19.536896 22.793045 27.673691 32.554337 40.705444 48.033569 52.105545 64.314331 72.465424 79.793549 87.121674 95.272766 103.42389 111.57501 118.90314 122.9751 127.04706 131.92773 141.70331 149.03143 153.10342 161.25452 169.40564 177.55676">xml-rpc messages. (Python)</tspan></text>
<text
             id="text128"
             style="font-variant:normal;font-weight:normal;font-size:14.65999985px;font-family:Arial;-inkscape-font-specification:ArialMT;writing-mode:lr-tb;fill:#000000;fill-opacity:1;fill-rule:nonzero;stroke:none"
             transform="translate(168,555)"><tspan
               id="tspan126"
               y="0"
               x="0">●</tspan></text>
<text
             id="text132"
             style="font-variant:normal;font-weight:normal;font-size:14.65999985px;font-family:Arial;-inkscape-font-specification:ArialMT;writing-mode:lr-tb;fill:#000000;fill-opacity:1;fill-rule:nonzero;stroke:none"
             transform="translate(192,555)"><tspan
               id="tspan130"
               y="0"
               x="0 12.208771 20.359879 28.510986 36.662094 40.73407 48.885178 57.036285 60.292435 68.443542 75.771667 79.843628 92.052429 100.20352 108.35461 112.42661 119.75473 123.82672 127.89868 136.0498 140.12177 144.19373 152.34485 160.49597 164.56793 171.89606 180.04718 184.9278 192.25592 200.40704 205.28769 209.35968 216.68781 228.89655 232.15271 237.03336 241.914 250.06512 257.39325 261.46521 268.79333 276.94446 281.8251 289.15323 297.30432 302.18497 307.06561 314.39374 317.6499 320.90607 329.05719 337.20831 341.28027 345.35223 352.68036 360.83148 373.04028 385.24902 393.40015 401.55127 404.80743 412.13556 420.28668 424.35864 427.61481 435.76593">Made adjustments to the server xml-rpc server-client communication</tspan></text>
<text
             id="text136"
             style="font-variant:normal;font-weight:normal;font-size:14.65999985px;font-family:Arial;-inkscape-font-specification:ArialMT;writing-mode:lr-tb;fill:#000000;fill-opacity:1;fill-rule:nonzero;stroke:none"
             transform="translate(192,575)"><tspan
               id="tspan134"
               y="0"
               x="0 12.208771 20.359879 28.510986 36.662094 39.918243 48.069351 55.397476 59.469452 63.541428 68.422058 79.006348 87.565369 96.12439 101.00504 105.07703 115.66129 123.81238 131.9635 136.03546 139.29163 147.44275 155.59384 158.84998 166.1781 170.25009 178.40118 186.55231 193.88043 202.03156 214.2403 222.39142 230.54254 234.6145 242.76562 250.91672 254.98871 267.19745 274.52557 278.59753 285.92566 294.07678 302.22791 310.37903 314.45099 317.70715 325.85828 329.93024 340.51453 348.66565 355.99377 363.3219 371.47302 379.62415 387.77527">modules. (C++) Routinely documented my code in Doxygen.</tspan></text>
<text
             id="text140"
             style="font-variant:normal;font-weight:normal;font-size:14.65999985px;font-family:Arial;-inkscape-font-specification:ArialMT;writing-mode:lr-tb;fill:#000000;fill-opacity:1;fill-rule:nonzero;stroke:none"
             transform="translate(168,595)"><tspan
               id="tspan138"
               y="0"
               x="0">●</tspan></text>
<text
             id="text144"
             style="font-variant:normal;font-weight:normal;font-size:14.65999985px;font-family:Arial;-inkscape-font-specification:ArialMT;writing-mode:lr-tb;fill:#000000;fill-opacity:1;fill-rule:nonzero;stroke:none"
             transform="translate(192,595)"><tspan
               id="tspan142"
               y="0"
               x="0 10.584274 18.735382 26.88649 31.767136 39.918243 48.069351 56.220459 64.371582 68.443542 72.515503 80.666626 88.817749 92.889709 96.96167 105.11279 112.44092 116.51288 120.58487 132.79364 140.94476 149.09586 157.24695 165.39807 173.54919 185.75793 193.90906 202.06018 206.13214 210.2041 221.60422 232.18848 236.26047 240.33246 248.48355 256.63464 264.78577 268.04193 271.2981 278.62622 286.77734 290.8493 294.10547 302.25659 310.40771 313.20587 320.534 324.60596 331.93408 340.08521 348.23633 355.56445 359.63641 369.41199 373.48401 381.63513 389.78625 397.11438 401.18634 409.33746 413.40942 417.48138 425.63251 433.78363 441.11176 445.18372 448.43988 456.591 464.74213 472.89325 476.14941 479.40558 483.47754 490.80566">Upgraded the test management GUI application's copy &amp; paste functionality.</tspan></text>
<text
             id="text148"
             style="font-variant:normal;font-weight:normal;font-size:14.65999985px;font-family:Arial;-inkscape-font-specification:ArialMT;writing-mode:lr-tb;fill:#000000;fill-opacity:1;fill-rule:nonzero;stroke:none"
             transform="translate(192,615)"><tspan
               id="tspan146"
               y="0"
               x="0 4.8806458 12.208771 20.359879 27.688004 35.839111 39.911087 43.983063 53.758667 64.342957 67.599091 75.750183 83.901306">(Java, Swing)</tspan></text>
<text
             id="text152"
             style="font-variant:normal;font-weight:bold;font-size:14.65999985px;font-family:Arial;-inkscape-font-specification:Arial-BoldMT;writing-mode:lr-tb;fill:#000000;fill-opacity:1;fill-rule:nonzero;stroke:none"
             transform="translate(96,655)"><tspan
               id="tspan150"
               y="0"
               x="0 9.7756042 15.479233 24.431854 28.50383 36.654938 44.806046 49.686691">Projects</tspan></text>
<path
             id="path154"
             style="fill:#888888;fill-opacity:1;fill-rule:nonzero;stroke:none"
             d="m 100,673 h 594 v 1 H 100 Z" /><text
             id="text158"
             style="font-variant:normal;font-weight:bold;font-size:14.65999985px;font-family:Arial;-inkscape-font-specification:Arial-BoldMT;writing-mode:lr-tb;fill:#000000;fill-opacity:1;fill-rule:nonzero;stroke:none"
             transform="translate(144,715)"><tspan
               id="tspan156"
               y="0"
               x="0 8.9526215 17.905243 29.305344 34.185989 42.337097 46.409073 55.361694 63.512802 72.465424 80.616531 84.688507 93.641129 97.713104 106.66573 112.36935 120.52045 126.22409 134.37518 138.44717 150.65594 158.80707 167.75967 175.91077 184.8634 193.01453 206.04626 214.19739 223.14999 228.03064 232.1026 242.68689 251.63953 260.59213 264.66412 268.73608 276.88721 285.03833 289.91898 293.99097 302.9436">LTO-7 Tape Library Management Application</tspan></text>
<text
             id="text162"
             style="font-variant:normal;font-weight:normal;font-size:14.65999985px;font-family:Arial;-inkscape-font-specification:ArialMT;writing-mode:lr-tb;fill:#3c78d8;fill-opacity:1;fill-rule:nonzero;stroke:none"
             transform="translate(144,735)"><tspan
               id="tspan160"
               y="0"
               x="0 9.7756042 17.926712 25.254837 33.405945 41.557053 44.813202 52.96431 57.844955 61.916931 70.869553 79.02066 87.171768 94.499893 97.756042 105.08417 109.15614 117.30725 124.63538 131.9635 135.21967 143.37076 151.52185 163.73065 171.88174 180.03284">Bachelor Thesis assignment</tspan></text>
<text
             id="text166"
             style="font-variant:normal;font-weight:normal;font-size:14.65999985px;font-family:Arial;-inkscape-font-specification:ArialMT;writing-mode:lr-tb;fill:#000000;fill-opacity:1;fill-rule:nonzero;stroke:none"
             transform="translate(144,775)"><tspan
               id="tspan164"
               y="0"
               x="0 8.9526215 17.103729 25.254837 29.326813 37.477921 45.629028 50.509674 58.660782 66.81189 74.140015 82.291122 86.363098 94.514206 98.586182 102.65816 114.86694 122.19507 126.26703 136.04263 145.81824 149.8902 158.04132 161.29749 168.62561 175.95374 184.10483 188.98547 193.05743 201.20856 205.28052 208.53668 216.68781 224.8389 228.91089 239.49515 247.64624 254.97437 259.04636 263.11835 271.26947 275.34143 282.66956 287.5502 295.70129 303.85242 307.92438 316.0755 320.14746 328.29858 332.37054 342.95483 351.10596 359.25708 363.32904 371.48016 379.63129 387.78241 391.03857 394.29474 401.62286 409.77399 413.84595 417.10211 425.25323 433.40436 437.47632 441.54828 449.6994 454.58008 458.65204 462.724 470.87512">The purpose of my BA dissertation was to create a web application for the</tspan></text>
<text
             id="text170"
             style="font-variant:normal;font-weight:normal;font-size:14.65999985px;font-family:Arial;-inkscape-font-specification:ArialMT;writing-mode:lr-tb;fill:#000000;fill-opacity:1;fill-rule:nonzero;stroke:none"
             transform="translate(144,795)"><tspan
               id="tspan168"
               y="0"
               x="0 12.208771 20.359879 28.510986 36.662094 44.813202 52.96431 65.17308 73.324188 81.475296 85.547272 89.619247 97.770355 101.84233 105.91431 114.06543 118.13739 126.28851 135.24112 146.64124 151.52185 159.67297 163.74493 167.81693 175.96802 184.11914 192.27026 196.34222 199.59839 202.85452 211.00562 215.88629 224.03738 228.91803 236.24615 240.31812 244.39011 253.34271 261.49384 269.64496 273.71692 285.92569 294.07678 297.33295 305.48407 309.55603 317.70715 325.85828 329.11444 337.26556 344.59369 348.66565 351.92181 359.24994 367.40106 371.47302 379.62415 383.69611 387.76807 391.84003 399.99115 408.14227 412.21423 420.36536 425.24597 433.39709 436.65326 444.80438 452.13251 456.20447 460.27643 470.86072 479.01184 486.33997 490.41193 494.48389 502.63501 506.70697 514.85809 523.00922 530.33734 533.59351 541.74463">management of a LTO-7 tape library. The main objective of the project was to design</tspan></text>
<text
             id="text174"
             style="font-variant:normal;font-weight:normal;font-size:14.65999985px;font-family:Arial;-inkscape-font-specification:ArialMT;writing-mode:lr-tb;fill:#000000;fill-opacity:1;fill-rule:nonzero;stroke:none"
             transform="translate(144,815)"><tspan
               id="tspan172"
               y="0"
               x="0 8.1511078 16.302216 24.453323 28.525299 31.781448 43.990219 52.141327 55.397476 63.548584 75.757355 83.908463 92.05957 96.131546 100.20352 108.35463 112.42661 119.75473 127.90582 131.16199 135.23395 143.38507 151.53619 154.79233 162.94342 167.01541 174.34354 182.49463 190.64575 195.5264 202.85452 211.00562 215.07761 223.2287 231.37982 239.53094 242.78708 250.93817 259.08929 263.16125 267.23322 275.38434 283.53546 287.60742 291.67938 302.26367 310.41479 318.56592 321.82208 329.97321 334.04517 342.19629 350.34741 358.49854 366.64966 369.90582 378.05695 382.12891 390.28003 397.60815 405.75928 410.63989 417.96802 422.04004 426.112 434.26312 438.33508 445.66321 453.81433 461.14246 468.47058 476.6217 483.94983 491.27795 495.34991 503.50104 506.7572 510.01337 517.34149 521.41345 525.48541 528.74158 536.8927">and implement a suitable search engine that would enable users to successfully find</tspan></text>
<text
             id="text178"
             style="font-variant:normal;font-weight:normal;font-size:14.65999985px;font-family:Arial;-inkscape-font-specification:ArialMT;writing-mode:lr-tb;fill:#000000;fill-opacity:1;fill-rule:nonzero;stroke:none"
             transform="translate(144,835)"><tspan
               id="tspan176"
               y="0"
               x="0 4.0719757 7.328125 10.584274 18.735382 26.063507 30.135483 37.463608 41.535583 49.686691 54.567337 62.718445 70.869553 74.941528 83.092636 91.243744 95.31572 99.387695 107.5388 115.68991 123.841 131.16913">files stored on tapes.</tspan></text>
<text
             id="text182"
             style="font-variant:normal;font-weight:normal;font-size:14.65999985px;font-family:Arial;-inkscape-font-specification:ArialMT;writing-mode:lr-tb;fill:#000000;fill-opacity:1;fill-rule:nonzero;stroke:none"
             transform="translate(168,855)"><tspan
               id="tspan180"
               y="0"
               x="0">●</tspan></text>
<text
             id="text186"
             style="font-variant:normal;font-weight:normal;font-size:14.65999985px;font-family:Arial;-inkscape-font-specification:ArialMT;writing-mode:lr-tb;fill:#000000;fill-opacity:1;fill-rule:nonzero;stroke:none"
             transform="translate(192,855)"><tspan
               id="tspan184"
               y="0"
               x="0 10.584274 18.735382 26.063507 29.319656 37.470764 45.621872 53.77298 61.924088 65.996063 74.147156 78.219147 90.427917 93.684082 101.83517 105.09131 117.30011 125.4512 128.70734 131.9635 139.29163 143.36359 146.61975 153.94788 158.01984 168.60413 172.67609 176.74808 180.00421 188.15533 192.22729 200.37842 205.25906 209.33105 217.48215 224.81027 232.96136 237.03336 245.18445 253.33557 260.6637 268.81482 276.96594 281.0379 289.18903 297.34015 301.41211 305.48407 313.63519 321.78632 325.85828 334.0094 338.89001 347.04114 350.2973 358.44843 365.77655 369.84851 373.92047 378.80115 386.95221 395.10333 403.25446 406.51062 411.39124 419.54236 431.7511 439.90222 448.05334 452.12531 459.45343">Designed a minimalistic UI interface based on the project requirements.</tspan></text>
<text
             id="text190"
             style="font-variant:normal;font-weight:normal;font-size:14.65999985px;font-family:Arial;-inkscape-font-specification:ArialMT;writing-mode:lr-tb;fill:#000000;fill-opacity:1;fill-rule:nonzero;stroke:none"
             transform="translate(168,875)"><tspan
               id="tspan188"
               y="0"
               x="0">●</tspan></text>
<text
             id="text194"
             style="font-variant:normal;font-weight:normal;font-size:14.65999985px;font-family:Arial;-inkscape-font-specification:ArialMT;writing-mode:lr-tb;fill:#000000;fill-opacity:1;fill-rule:nonzero;stroke:none"
             transform="translate(192,875)"><tspan
               id="tspan192"
               y="0"
               x="0 10.584274 18.735382 26.063507 29.319656 37.470764 45.621872 53.77298 61.924088 65.996063 70.068054 78.219147 86.370239 90.44223 97.770355 101.84235 106.72296 114.87408 122.20221 126.27417 134.42529 139.30594 147.45703 151.52902 159.68011 167.83124 175.98236 180.05432 187.38245 192.26309 200.41418 208.56531 212.63727 220.78839 228.93951 233.01147 237.08344 245.23456 253.38568 257.45764 265.60876 273.75989 277.83185 285.98297 294.13409 302.28522 309.61334 317.76447 321.83643 329.98755 337.31567 340.57184 348.72296 356.87408 360.94604 373.15479 380.48291 390.25854 401.65863 409.80975">Designed the structure and created the database using MySQL.</tspan></text>
<text
             id="text198"
             style="font-variant:normal;font-weight:normal;font-size:14.65999985px;font-family:Arial;-inkscape-font-specification:ArialMT;writing-mode:lr-tb;fill:#000000;fill-opacity:1;fill-rule:nonzero;stroke:none"
             transform="translate(168,895)"><tspan
               id="tspan196"
               y="0"
               x="0">●</tspan></text>
<text
             id="text202"
             style="font-variant:normal;font-weight:normal;font-size:14.65999985px;font-family:Arial;-inkscape-font-specification:ArialMT;writing-mode:lr-tb;fill:#000000;fill-opacity:1;fill-rule:nonzero;stroke:none"
             transform="translate(192,895)"><tspan
               id="tspan200"
               y="0"
               x="0 4.0719757 16.280746 24.431854 27.688004 35.839111 48.047882 56.19899 64.350098 68.422058 76.573181 84.724304 88.796265 96.12439 104.27551 109.15613 116.48425 124.63538 129.51602 133.58801 138.46863 146.61975 154.77087 158.84283 162.099 170.25009 178.40118 182.47318 190.62427 197.95239 201.20856 209.35968 217.51077 221.58276 225.65472 233.80585 241.95694 246.02893 255.8045 263.13263 271.28375 276.1644 284.31549 291.64362 298.97174 303.0437 306.29987 313.62799 317.69995 325.85107 334.0022 342.15332 346.22528 356.80957 364.96069 373.11182 381.26294 385.3349 388.59106 395.91919 399.99115 408.14227 416.2934 423.62152 426.87769 431.7583 439.90942 448.06055 460.26929 468.42041 476.57153 480.64349">Implemented server routing using the Express.js and Node.js environment.</tspan></text>
<text
             id="text206"
             style="font-variant:normal;font-weight:normal;font-size:14.65999985px;font-family:Arial;-inkscape-font-specification:ArialMT;writing-mode:lr-tb;fill:#000000;fill-opacity:1;fill-rule:nonzero;stroke:none"
             transform="translate(168,915)"><tspan
               id="tspan204"
               y="0"
               x="0">●</tspan></text>
<text
             id="text210"
             style="font-variant:normal;font-weight:normal;font-size:14.65999985px;font-family:Arial;-inkscape-font-specification:ArialMT;writing-mode:lr-tb;fill:#000000;fill-opacity:1;fill-rule:nonzero;stroke:none"
             transform="translate(192,915)"><tspan
               id="tspan208"
               y="0"
               x="0 9.7756042 17.926712 25.254837 32.582962 40.73407 48.062195 55.39032 59.462296 67.613403 70.869568 74.125702 81.453827 85.525818 92.853943 97.734558 105.88568 114.0368 118.10876 126.25989 134.41098 138.48297 142.55493 150.70605 158.85715 162.92914 170.25726 178.40836 186.55945 191.44012 198.76825 206.91934 210.99133 219.14243 227.29352 235.44464 238.70081 246.8519 255.00299 259.07498 269.65924 272.91541 276.98737 285.13849 289.21045 297.36157 305.5127 313.66382 316.91998 320.99194 324.24811 332.39923 340.55035 348.70148 351.95764 356.0296 360.10156 363.35773 366.61389 370.68585 378.83698 383.71765 387.78961 391.86157 400.0127 408.16382 415.49194 419.5639 422.82007 430.97119 439.12231 447.27344 450.5296 453.78577 457.85773 461.11389 469.26501">Successfully created the search engine with additional filter functionalities</tspan></text>
<text
             id="text214"
             style="font-variant:normal;font-weight:normal;font-size:14.65999985px;font-family:Arial;-inkscape-font-specification:ArialMT;writing-mode:lr-tb;fill:#000000;fill-opacity:1;fill-rule:nonzero;stroke:none"
             transform="translate(168,935)"><tspan
               id="tspan212"
               y="0"
               x="0">●</tspan></text>
<text
             id="text218"
             style="font-variant:normal;font-weight:normal;font-size:14.65999985px;font-family:Arial;-inkscape-font-specification:ArialMT;writing-mode:lr-tb;fill:#000000;fill-opacity:1;fill-rule:nonzero;stroke:none"
             transform="translate(192,935)"><tspan
               id="tspan216"
               y="0"
               x="0 9.7756042 17.926712 26.07782 34.228928 37.485077 45.636185 53.787292 57.859268 66.010376 73.338501 81.489624 86.370239 90.44223 98.593323 106.74445 110.81641 118.96753 127.11865 135.26974 139.34174 142.59787 149.92599 158.07709 162.14908 165.40521 173.55634 181.70746 185.77942 193.93054 201.25867 204.5148 212.66589 220.81702 224.88898 228.96097 237.11206 245.26318 249.33514 259.11078 267.2619 274.59003 281.91815 290.06927 298.2204 303.10104 307.17303 311.245 314.50116 321.82928 325.90125 338.10999 346.26111 354.41223 362.56335 365.81952 373.97064">Enabled user authentication using the Passport.js module.</tspan></text>
<text
             id="text222"
             style="font-variant:normal;font-weight:normal;font-size:14.65999985px;font-family:Arial;-inkscape-font-specification:ArialMT;writing-mode:lr-tb;fill:#000000;fill-opacity:1;fill-rule:nonzero;stroke:none"
             transform="translate(168,955)"><tspan
               id="tspan220"
               y="0"
               x="0">●</tspan></text>
<text
             id="text226"
             style="font-variant:normal;font-weight:normal;font-size:14.65999985px;font-family:Arial;-inkscape-font-specification:ArialMT;writing-mode:lr-tb;fill:#000000;fill-opacity:1;fill-rule:nonzero;stroke:none"
             transform="translate(192,955)"><tspan
               id="tspan224"
               y="0"
               x="0 10.584274 15.46492 23.616028 31.767136 35.839111 43.990219 52.141327 56.213303 64.36441 72.515503 76.587494 84.738586 92.889709 96.96167 105.11279 117.32156 125.47266 129.54465 132.80078 140.12891 144.2009 147.45703 159.66583 167.81693 175.96802 180.84869 184.92065 188.99261 193.06461 201.2157 209.36682 216.69495 220.76691 224.02307 232.17419 240.32529 248.47638 251.73254 254.98871 259.06067 266.38879 270.46075 274.53271 282.68384 287.56448 291.63647 299.7876 307.93872 316.08984 324.24097 327.49713 335.64825 339.72021 342.97638 351.1275 359.27863 363.35059 367.42255 375.57367 383.72479 387.79675 395.94788 404.099 408.17096 416.32208 424.47321 432.62433 439.95245 448.10358 452.17554 460.32666 467.65479 470.91095 479.06207 487.2132 491.28516">Created an automatic import functionality for populating the database using a</tspan></text>
<text
             id="text230"
             style="font-variant:normal;font-weight:normal;font-size:14.65999985px;font-family:Arial;-inkscape-font-specification:ArialMT;writing-mode:lr-tb;fill:#000000;fill-opacity:1;fill-rule:nonzero;stroke:none"
             transform="translate(192,975)"><tspan
               id="tspan228"
               y="0"
               x="0 7.328125 15.479233 22.807358 26.879333 35.030441 47.239212 51.311188 59.462296 67.613403 72.494049 79.822174 83.078308 91.229431 99.380554 103.45251 107.52448 115.6756 123.82672 131.15485 135.22681 138.48297 146.63406 154.78516 158.85715 167.00824 175.15936 183.31049 187.38245 191.45441 199.60553 207.75665 211.82861 222.4129 227.29352 235.44464 243.59576 250.92389 259.07498 267.22607 275.3772 279.44916 282.70532 290.03345 294.10541 306.31418 314.46527 322.61639 330.76752 334.02368 342.1748">custom parsing function and the Dropzone.js module.</tspan></text>
<text
             id="text234"
             style="font-variant:normal;font-weight:normal;font-size:14.65999985px;font-family:Arial;-inkscape-font-specification:ArialMT;writing-mode:lr-tb;fill:#000000;fill-opacity:1;fill-rule:nonzero;stroke:none"
             transform="translate(168,995)"><tspan
               id="tspan232"
               y="0"
               x="0">●</tspan></text>
<text
             id="text238"
             style="font-variant:normal;font-weight:normal;font-size:14.65999985px;font-family:Arial;-inkscape-font-specification:ArialMT;writing-mode:lr-tb;fill:#000000;fill-opacity:1;fill-rule:nonzero;stroke:none"
             transform="translate(192,995)"><tspan
               id="tspan236"
               y="0"
               x="0 10.584274 17.912399 26.063507 34.214615 38.286591 42.358566 50.509674 58.660782 62.732758 72.508362 84.717133 92.868225 101.01935 109.17047 117.32156 125.47266 133.62378 137.69574 145.02386 153.17499 160.50311 168.65424 175.98236 183.31049 188.1911 191.44727 199.59839 203.67035 207.74231 211.8143 219.96539 232.17419 240.32529 243.58142 251.73254 255.8045 263.95563 268.02759 276.17871 284.32983 292.48096 295.73712 303.88824 312.03937 316.11133 320.18329 328.33441 333.21509 337.28705 345.43817 353.58929 356.84546 360.10162 368.25275 371.50891 379.66003 387.81116 391.88312 395.95508 399.21124 407.36237 415.51349 418.76965 422.84161 430.99274 435.0647 447.27344 450.5296 454.60156 458.67352 461.92969 465.18585 473.33698 480.6651">Used the Embedded Javascript template engine for building final html files.</tspan></text>
</g></g></g></g></svg>