<?xml version="1.0" encoding="UTF-8" standalone="no"?>
<svg
   xmlns:dc="http://purl.org/dc/elements/1.1/"
   xmlns:cc="http://creativecommons.org/ns#"
   xmlns:rdf="http://www.w3.org/1999/02/22-rdf-syntax-ns#"
   xmlns:svg="http://www.w3.org/2000/svg"
   xmlns="http://www.w3.org/2000/svg"
   viewBox="0 0 794.66669 1124"
   height="1124"
   width="794.66669"
   xml:space="preserve"
   id="svg2"
   version="1.1"><metadata
     id="metadata8"><rdf:RDF><cc:Work
         rdf:about=""><dc:format>image/svg+xml</dc:format><dc:type
           rdf:resource="http://purl.org/dc/dcmitype/StillImage" /></cc:Work></rdf:RDF></metadata><defs
     id="defs6"><clipPath
       id="clipPath18"
       clipPathUnits="userSpaceOnUse"><path
         style="clip-rule:evenodd"
         id="path16"
         d="M 596,0 H 0 v 842.95728 h 596 z" /></clipPath></defs><g
     transform="matrix(1.3333333,0,0,1.3333333,0,2.81e-5)"
     id="g10"><g
       id="g12"><g
         clip-path="url(#clipPath18)"
         id="g14"><g
           transform="matrix(0.75062972,0,0,0.75062972,0,-1685.9143)"
           id="g20"><path
             id="path22"
             style="fill:#ffffff;fill-opacity:1;fill-rule:nonzero;stroke:none"
             d="M 0,2246 H 794 V 3369 H 0 Z" /><path
             id="path24"
             style="fill:#ffffff;fill-opacity:1;fill-rule:nonzero;stroke:none"
             d="M 0,2246 H 794 V 3369 H 0 Z" /><path
             id="path26"
             style="fill:#ffffff;fill-opacity:1;fill-rule:nonzero;stroke:none"
             d="M 0,0 H 794 V 3369 H 0 Z" /><path
             id="path28"
             style="fill:#ffffff;fill-opacity:1;fill-rule:nonzero;stroke:none"
             d="M 0,2246 H 794 V 3369 H 0 Z" /><path
             id="path30"
             style="fill:#ffffff;fill-opacity:1;fill-rule:nonzero;stroke:none"
             d="M 0,2342 H 794 V 3369 H 0 Z" /><text
             id="text34"
             style="font-variant:normal;font-weight:bold;font-size:14.65999985px;font-family:Arial;-inkscape-font-specification:Arial-BoldMT;writing-mode:lr-tb;fill:#000000;fill-opacity:1;fill-rule:nonzero;stroke:none"
             transform="translate(96,2376)"><tspan
               id="tspan32"
               y="0"
               x="0 8.9526215 17.103729 26.056351 35.008972 43.961594 52.112701 61.065323 69.216431">Languages</tspan></text>
<path
             id="path36"
             style="fill:#888888;fill-opacity:1;fill-rule:nonzero;stroke:none"
             d="m 100,2394 h 594 v 1 H 100 Z" /><text
             id="text40"
             style="font-variant:normal;font-weight:normal;font-size:14.65999985px;font-family:Arial;-inkscape-font-specification:ArialMT;writing-mode:lr-tb;fill:#000000;fill-opacity:1;fill-rule:nonzero;stroke:none"
             transform="translate(168,2436)"><tspan
               id="tspan38"
               y="0"
               x="0">●</tspan></text>
<text
             id="text44"
             style="font-variant:normal;font-weight:normal;font-size:14.65999985px;font-family:Arial;-inkscape-font-specification:ArialMT;writing-mode:lr-tb;fill:#000000;fill-opacity:1;fill-rule:nonzero;stroke:none"
             transform="translate(192,2436)"><tspan
               id="tspan42"
               y="0"
               x="0 9.7756042 17.926712 21.182861 24.439011 31.767136 39.918243 43.990219 48.870865 52.942841 65.151611 73.302734 77.374695 85.525818 93.67691 98.557556 102.62952 106.70151 114.8526 123.00372 131.15485 139.30594">Polish - mother tongue</tspan></text>
<text
             id="text48"
             style="font-variant:normal;font-weight:normal;font-size:14.65999985px;font-family:Arial;-inkscape-font-specification:ArialMT;writing-mode:lr-tb;fill:#000000;fill-opacity:1;fill-rule:nonzero;stroke:none"
             transform="translate(168,2456)"><tspan
               id="tspan46"
               y="0"
               x="0">●</tspan></text>
<text
             id="text52"
             style="font-variant:normal;font-weight:normal;font-size:14.65999985px;font-family:Arial;-inkscape-font-specification:ArialMT;writing-mode:lr-tb;fill:#000000;fill-opacity:1;fill-rule:nonzero;stroke:none"
             transform="translate(192,2456)"><tspan
               id="tspan50"
               y="0"
               x="0 9.7756042 17.926712 26.07782 29.333969 32.590118 39.918243 48.069351 52.141327 57.021973 61.093948 71.678223">English - C2</tspan></text>
<text
             id="text56"
             style="font-variant:normal;font-weight:normal;font-size:14.65999985px;font-family:Arial;-inkscape-font-specification:ArialMT;writing-mode:lr-tb;fill:#000000;fill-opacity:1;fill-rule:nonzero;stroke:none"
             transform="translate(168,2476)"><tspan
               id="tspan54"
               y="0"
               x="0">●</tspan></text>
<text
             id="text60"
             style="font-variant:normal;font-weight:normal;font-size:14.65999985px;font-family:Arial;-inkscape-font-specification:ArialMT;writing-mode:lr-tb;fill:#000000;fill-opacity:1;fill-rule:nonzero;stroke:none"
             transform="translate(192,2476)"><tspan
               id="tspan58"
               y="0"
               x="0 11.400101 19.551208 24.431854 36.640625 44.791733 52.942841 57.014816 61.895462 65.967438 75.743042">German - B2</tspan></text>
<text
             id="text64"
             style="font-variant:normal;font-weight:bold;font-size:14.65999985px;font-family:Arial;-inkscape-font-specification:Arial-BoldMT;writing-mode:lr-tb;fill:#000000;fill-opacity:1;fill-rule:nonzero;stroke:none"
             transform="translate(96,2516)"><tspan
               id="tspan62"
               y="0"
               x="0 10.584274 18.735382 26.88649 35.839111 48.870865 57.823486 61.895462 65.967438 74.118546 83.071167 96.102921 104.25403 113.20665 118.0873">Accomplishments</tspan></text>
<path
             id="path66"
             style="fill:#888888;fill-opacity:1;fill-rule:nonzero;stroke:none"
             d="m 100,2534 h 594 v 1 H 100 Z" /><text
             id="text70"
             style="font-variant:normal;font-weight:normal;font-size:14.65999985px;font-family:Arial;-inkscape-font-specification:ArialMT;writing-mode:lr-tb;fill:#000000;fill-opacity:1;fill-rule:nonzero;stroke:none"
             transform="translate(168,2576)"><tspan
               id="tspan68"
               y="0"
               x="0">●</tspan></text>
<text
             id="text74"
             style="font-variant:normal;font-weight:normal;font-size:14.65999985px;font-family:Arial;-inkscape-font-specification:ArialMT;writing-mode:lr-tb;fill:#000000;fill-opacity:1;fill-rule:nonzero;stroke:none"
             transform="translate(192,2576)"><tspan
               id="tspan72"
               y="0"
               x="0 9.7756042 17.926712 25.254837 33.405945 41.557053 44.813202 52.96431 57.844955 61.916931 72.501221 80.652313 88.803406 93.684082 101.83517 109.98627 114.05826 124.64252 127.89868 131.97064 140.12177 144.19373 154.77802 162.92914 171.08023 179.23132 187.38245 192.26309 199.59122 203.66321 208.54382 215.87195 224.02307 232.17419 235.43033 243.58142 246.83759 250.09375 258.24484 266.39594 269.6521 277.80322 285.95435 290.02631 300.6106 308.76172 312.01788 319.34601 327.49713 332.37781 339.70593 342.96204 347.034 354.36212">Bachelor Degree with Honours (Jagiellonian University)</tspan></text>
<text
             id="text78"
             style="font-variant:normal;font-weight:normal;font-size:14.65999985px;font-family:Arial;-inkscape-font-specification:ArialMT;writing-mode:lr-tb;fill:#000000;fill-opacity:1;fill-rule:nonzero;stroke:none"
             transform="translate(168,2596)"><tspan
               id="tspan76"
               y="0"
               x="0">●</tspan></text>
<text
             id="text82"
             style="font-variant:normal;font-weight:normal;font-size:14.65999985px;font-family:Arial;-inkscape-font-specification:ArialMT;writing-mode:lr-tb;fill:#000000;fill-opacity:1;fill-rule:nonzero;stroke:none"
             transform="translate(192,2596)"><tspan
               id="tspan80"
               y="0"
               x="0 10.584274 18.735382 26.88649 35.037598 37.835739 45.163864 49.23584 59.011444 66.339569 74.490662 82.641785 85.897949 94.049042 98.929688 106.25781 114.40894 117.66507 125.81616 129.88815 133.96014 142.11124 146.99188 151.06384 155.13583 163.28693 171.43805 175.51001 185.28564 193.43674 200.76486 204.83685 208.90881 218.68442 222.75641 230.9075 239.05859 247.20972 255.36084 259.4328 266.76093 270.83289 275.71353 283.04166 291.19275 299.34387 302.60004 310.75116 314.00732 317.26349 325.41461 333.56573 336.8219 344.97302 353.12415 357.19611 367.7804 375.93152 379.18768 386.51581 394.66693 399.54761 406.87573 410.13184 414.2038 421.53192">Dean's Scholarship for the Best Students (Jagiellonian University)</tspan></text>
<text
             id="text86"
             style="font-variant:normal;font-weight:normal;font-size:14.65999985px;font-family:Arial;-inkscape-font-specification:ArialMT;writing-mode:lr-tb;fill:#000000;fill-opacity:1;fill-rule:nonzero;stroke:none"
             transform="translate(168,2616)"><tspan
               id="tspan84"
               y="0"
               x="0">●</tspan></text>
<text
             id="text90"
             style="font-variant:normal;font-weight:normal;font-size:14.65999985px;font-family:Arial;-inkscape-font-specification:ArialMT;writing-mode:lr-tb;fill:#000000;fill-opacity:1;fill-rule:nonzero;stroke:none"
             transform="translate(192,2616)"><tspan
               id="tspan88"
               y="0"
               x="0 9.7756042 17.926712 26.07782 29.333969 32.590118 39.918243 48.069351 52.141327 60.292435 68.443542 76.594666 84.745758 92.896851 101.04797 109.1991 117.35019 121.42218 132.82227 136.07843 143.40656 155.6153 163.76642 167.02258 175.17368 183.32477 187.39676 195.54785 203.69897 211.8501 216.73071 224.88184 233.03296 237.10492 245.25604 249.328 254.20865 266.41742 269.67358 277.82471 285.97583 289.23199 297.38312 301.45508 311.23068 318.55881 326.7099 334.86102 343.01215 346.26831">English Language Olympiad Laureate (Middle School)</tspan></text>
<text
             id="text94"
             style="font-variant:normal;font-weight:bold;font-size:14.65999985px;font-family:Arial;-inkscape-font-specification:Arial-BoldMT;writing-mode:lr-tb;fill:#000000;fill-opacity:1;fill-rule:nonzero;stroke:none"
             transform="translate(96,2656)"><tspan
               id="tspan92"
               y="0"
               x="0 4.0719757 13.024597 17.905243 26.056351 31.759979 39.911087 48.062195 52.942841">Interests</tspan></text>
<path
             id="path96"
             style="fill:#888888;fill-opacity:1;fill-rule:nonzero;stroke:none"
             d="m 100,2674 h 594 v 1 H 100 Z" /><text
             id="text100"
             style="font-variant:normal;font-weight:normal;font-size:14.65999985px;font-family:Arial;-inkscape-font-specification:ArialMT;writing-mode:lr-tb;fill:#000000;fill-opacity:1;fill-rule:nonzero;stroke:none"
             transform="translate(144,2716)"><tspan
               id="tspan98"
               y="0"
               x="0 8.9526215 17.103729 25.254837 29.326813 37.477921 45.629028 48.885178 52.141327 56.213303 60.285278 68.436386 73.317032 80.645157 88.796265 92.052414 96.12439 104.2755 111.60362 115.6756 123.82672 128.70734 136.85846 140.93042 145.00241 149.0744 153.95502 162.10614 170.25726 177.58539 185.73648 193.88757 198.76825 202.84021 210.99133 215.06329 218.31946 226.47055">Football, architecture, transportation</tspan></text>
<path
             id="path102"
             style="fill:#888888;fill-opacity:1;fill-rule:nonzero;stroke:none"
             d="m 100,2754 h 594 v 1 H 100 Z" /><text
             id="text106"
             style="font-style:italic;font-variant:normal;font-size:13.32999992px;font-family:Arial;-inkscape-font-specification:Arial-ItalicMT;writing-mode:lr-tb;fill:#000000;fill-opacity:1;fill-rule:nonzero;stroke:none"
             transform="translate(96,2795)"><tspan
               id="tspan104"
               y="0"
               x="0 3.7029877 7.4059753 14.818451 22.230927 26.669296 34.081772 41.494247 48.15831 51.861298 59.273773 66.686249 71.124619 78.537094 85.94957 89.652557 93.355545 100.76802 104.47101 108.174 115.58647 122.99895 126.70193 134.11441 138.55278 145.96526 152.62932 160.04181 166.70587 173.36993 176.33099 183.74347 191.15594 194.85895 202.27142 205.97443 209.6774 220.77985 227.44391 231.14688 238.55936 245.97183 250.41022 257.07428 264.48676 271.89923 279.31171 282.2728 285.97577 293.38824 300.80072 304.50372 311.9162 315.6192 318.58029 325.99277 332.65683 335.61792 343.0304 350.44287 357.85535 365.26782 368.97083 371.93192 379.34439 383.04736 394.14978 400.81384 404.51685 407.47794 414.89041 422.30286 426.00586 433.41833 440.83081 448.24329 451.20435 454.16547 460.82953 468.242 471.94501 474.90613 482.3186 489.73108 493.43402 496.39514 503.80762 507.51056 511.21356 518.62604 526.03851 529.74152 534.17987 541.59235 548.25641 552.69476 560.10724 563.06836 566.77136 577.87378 585.28625 592.69873">I hereby agree to the processing of my personal data included in my job application in the recruitment</tspan></text>
<text
             id="text110"
             style="font-style:italic;font-variant:normal;font-size:13.32999992px;font-family:Arial;-inkscape-font-specification:Arial-ItalicMT;writing-mode:lr-tb;fill:#000000;fill-opacity:1;fill-rule:nonzero;stroke:none"
             transform="translate(96,2813)"><tspan
               id="tspan108"
               y="0"
               x="0 7.4124756 11.850845 19.263321 25.927383 33.339859 40.003922 46.667984 50.370972 54.809341 63.699097 70.363159 77.027222 84.439697 88.878067 96.290543 99.251633 106.66411 114.07658 117.77957 121.48256 128.89503 132.59802 136.30101 143.71349 151.12596 154.82895 157.79004 165.20251 174.82767 178.53064 185.94312 189.64612 193.34912 200.7616 208.17407 212.61243 219.27649 226.68896 234.10144 241.51392 244.47501 248.17798 257.80316 265.21564 268.91864 276.33112 280.03412 288.92389 293.36224 300.77472 304.47772 311.8902 318.55426 322.25726 325.21835 332.63083 340.0433 343.74628 347.44928 351.88763 359.30011 370.40253 374.10553 381.51801 388.93048 392.63348 401.52325 408.93573 416.34821 423.76068 430.42474 434.12775 437.83075 445.24323 452.6557 460.06818 467.48065 471.18365 474.88666 484.51184 491.1759 494.13696 501.54944 508.96191 516.37439 519.33545 525.99951 529.70251 539.32764 545.9917 549.6947 557.10718">process (According to the law of personal Data Protection from 29 August 1997, Dziennik Ustaw</tspan></text>
<text
             id="text114"
             style="font-style:italic;font-variant:normal;font-size:13.32999992px;font-family:Arial;-inkscape-font-specification:Arial-ItalicMT;writing-mode:lr-tb;fill:#000000;fill-opacity:1;fill-rule:nonzero;stroke:none"
             transform="translate(96,2831)"><tspan
               id="tspan112"
               y="0"
               x="0 7.4124756 14.824951 18.527939 25.940414 33.35289 40.765366 44.468353 47.429443 51.132431 58.544907 69.647339 73.350327 80.762802 88.175278 95.587753">no.133 item 883)</tspan></text>
<text
             id="text118"
             style="font-style:italic;font-variant:normal;font-size:13.32999992px;font-family:Arial;-inkscape-font-specification:Arial-ItalicMT;writing-mode:lr-tb;fill:#000000;fill-opacity:1;fill-rule:nonzero;stroke:none"
             transform="translate(96,2849)"><tspan
               id="tspan116"
               y="0"
               x="0 12.579727 19.24379 23.682159 31.094635 37.758698 45.171173 56.273605 59.976593 66.640656 74.053131 81.465607 88.878082 96.290558 99.993546 107.40602 114.8185 118.52148 125.93396 130.37233 137.03639 144.44887 148.15186 157.77701 165.18948 169.62787 176.29193 183.70441 191.11688 194.07794 201.49042 205.19342 216.29584 223.70831 226.66943 233.3335 240.74597 244.44894 251.86142 259.2739 266.68637 273.35043 280.0145 287.42697 291.12994 298.54242 305.20648 312.61896 320.03143 327.44391 337.06906 343.73312 350.39719 357.80966 361.51263 368.1767 375.58917 385.21432 392.6268 397.06519 400.76819 407.43225 414.09631 421.50879 425.21179 434.83691 438.53992 449.64233 457.05481 460.01587 467.42834 470.38947 474.09247 481.50494 485.20795 492.62042 497.05878 503.72284 506.68396 514.09644 517.79944 525.21191 529.65027 537.06274 543.72681 550.39087 554.09387 561.50635 564.46741">Wyrażam zgodę na przetwarzanie moich danych osobowych zawartych w mojej ofercie pracy dla</tspan></text>
<text
             id="text122"
             style="font-style:italic;font-variant:normal;font-size:13.32999992px;font-family:Arial;-inkscape-font-specification:Arial-ItalicMT;writing-mode:lr-tb;fill:#000000;fill-opacity:1;fill-rule:nonzero;stroke:none"
             transform="translate(96,2867)"><tspan
               id="tspan120"
               y="0"
               x="0 7.4124756 14.824951 18.527939 22.966309 29.630371 37.042847 44.455322 48.15831 55.570786 58.531876 65.944351 72.608414 80.020889 87.433365 94.84584 102.25832 108.92238 115.58644 122.99892 126.7019 134.11438 141.52686 145.22984 149.66821 157.08069 164.49316 167.45425 170.41534 177.07941 184.49188 191.15594 194.11703 197.07812 200.78113 208.1936 212.63196 220.04443 226.7085 234.12097 240.78503 248.19751 251.90051 256.33887 263.75134 270.41541 274.85376 282.26624 285.96924 293.38171 300.04578 303.00687 305.96796 309.67096 317.08344 321.52179 328.93427 335.59833 339.30133 346.71381 354.12628 357.82928 360.79037 368.20285 375.61533 383.0278 386.73077 393.39484 400.80731 407.47137 414.88385 422.29633 428.96039 435.62445 443.03693 450.4494 453.41052 460.823 464.52594 471.93842 479.35089 483.05389 490.46637 497.87885 501.58185 506.0202 512.68427 520.09674 527.50922 534.17328 537.87628 544.54034 551.95282 554.91394 562.32642 565.28748 572.69995 579.36401 586.02808">potrzeb niezbędnych do realizacji procesu rekrutacji oraz po jego zakończeniu na potrzeby kolejnych</tspan></text>
<text
             id="text126"
             style="font-style:italic;font-variant:normal;font-size:13.32999992px;font-family:Arial;-inkscape-font-specification:Arial-ItalicMT;writing-mode:lr-tb;fill:#000000;fill-opacity:1;fill-rule:nonzero;stroke:none"
             transform="translate(96,2885)"><tspan
               id="tspan124"
               y="0"
               x="0 4.4383698 11.850845 18.514908 22.953278 30.365753 34.068741 41.481216 48.145279 51.106369 54.067459 57.770447 62.208817 68.872879 76.285355 83.69783 91.110306 98.522781 101.48387 108.89635 112.59933 119.2634 122.96638 130.37886 137.04292 140.74591 148.15839 157.78354 165.19601 168.89899 175.56305 179.26605 186.67853 194.091 197.79401 201.49698 208.90945 216.32193 220.0249 227.43738 234.84985 238.55286 245.96533 253.37781 260.79028 268.20276 271.90576 276.34412 280.04712 283.75012 291.1626 294.8656 302.27808 308.94214 316.35461 320.79297 328.20544 335.61792 338.57901 345.99149 349.69446 357.10693 364.51941 371.93188 378.59595 385.26001 392.67249 396.37549 403.78796 410.45203 417.8645 425.27698 432.68945 442.31458 448.97864 455.6427 463.05518 466.75818 470.46118 480.0863 486.75037 490.45337 494.15637 503.78149 507.4845 511.1875 518.59998 523.03833 526.74133 534.15381 541.56628 548.97876">rekrutacji (zgodnie z ustawą z dn. 29.08.1997 r. o ochronie danych osobowych, Dz. U. nr 133.</tspan></text>
<text
             id="text130"
             style="font-style:italic;font-variant:normal;font-size:13.32999992px;font-family:Arial;-inkscape-font-specification:Arial-ItalicMT;writing-mode:lr-tb;fill:#000000;fill-opacity:1;fill-rule:nonzero;stroke:none"
             transform="translate(96,2903)"><tspan
               id="tspan128"
               y="0"
               x="0 7.4124756 14.824951 21.489014 25.192001 32.604477 40.016953 47.429428 51.867798">poz.883).</tspan></text>
</g></g></g></g></svg>